Jump_normalized_pl10_filtered_grf
version=1
nRows=15
nColumns=37
inDegrees=yes
endheader
time		1_ground_force_vx		1_ground_force_vy		1_ground_force_vz		1_ground_force_px		1_ground_force_py		1_ground_force_pz		1_ground_torque_x		1_ground_torque_y		1_ground_torque_z		2_ground_force_vx		2_ground_force_vy		2_ground_force_vz		2_ground_force_px		2_ground_force_py		2_ground_force_pz		2_ground_torque_x		2_ground_torque_y		2_ground_torque_z		3_ground_force_vx		3_ground_force_vy		3_ground_force_vz		3_ground_force_px		3_ground_force_py		3_ground_force_pz		3_ground_torque_x		3_ground_torque_y		3_ground_torque_z		4_ground_force_vx		4_ground_force_vy		4_ground_force_vz		4_ground_force_px		4_ground_force_py		4_ground_force_pz		4_ground_torque_x		4_ground_torque_y		4_ground_torque_z		
0.162000		0.000000		-0.000000		-0.000000		0.168179		0.000000		0.038553		-0.000000		-0.000000		0.000000		-0.000000		-0.000000		-0.000000		-0.185506		0.000000		0.247637		-0.000000		0.000000		-0.000000		-108.727257		700.134413		63.730646		0.413473		1.261580		1.876291		5.130535		-33.037384		-3.007271		128.435917		910.815520		31.459881		-0.354779		1.255015		1.903646		6.433649		45.624835		1.575897		
0.164197		0.000000		-0.000000		0.000000		0.168179		0.000000		0.038553		-0.000000		-0.000000		0.000000		-0.000000		0.000000		-0.000000		-0.185506		0.000000		0.247637		-0.000000		0.000000		0.000000		-109.728589		700.961318		62.233927		0.413505		1.261580		1.876348		5.179593		-33.087954		-2.937670		130.188684		912.962487		28.278887		-0.354772		1.255008		1.903708		6.537880		45.847589		1.420118		
0.166394		-0.000000		-0.000000		0.000000		0.168179		0.000000		0.038553		-0.000000		0.000000		0.000000		-0.000000		0.000000		0.000000		-0.185506		0.000000		0.247637		0.000000		0.000000		0.000000		-110.719282		701.729305		60.730851		0.413536		1.261580		1.876408		5.228462		-33.137542		-2.867873		131.889534		914.581158		25.031292		-0.354764		1.255001		1.903769		6.639731		46.042865		1.260150		
0.168591		-0.000000		0.000000		0.000000		0.168179		0.000000		0.038553		0.000000		0.000000		-0.000000		-0.000000		0.000000		0.000000		-0.185506		0.000000		0.247637		0.000000		0.000000		0.000000		-111.682117		702.428431		59.201453		0.413564		1.261581		1.876473		5.276480		-33.186601		-2.797003		133.531136		915.669581		21.728509		-0.354755		1.254994		1.903829		6.738741		46.209886		1.096541		
0.170788		-0.000000		0.000000		0.000000		0.168179		0.000000		0.038553		0.000000		0.000000		-0.000000		-0.000000		0.000000		0.000000		-0.185506		0.000000		0.247637		0.000000		0.000000		0.000000		-112.599016		703.044550		57.625044		0.413590		1.261585		1.876541		5.322958		-33.235427		-2.724141		135.107974		916.231239		18.381075		-0.354745		1.254986		1.903888		6.834532		46.348189		0.929814		
0.172985		-0.000000		0.000000		0.000000		0.168179		0.000000		0.038553		0.000000		0.000000		-0.000000		-0.000000		0.000000		0.000000		-0.185506		0.000000		0.247637		0.000000		-0.000000		0.000000		-113.452721		703.560800		55.982166		0.413612		1.261589		1.876612		5.367235		-33.284138		-2.648411		136.616430		916.276305		14.997988		-0.354734		1.254979		1.903948		6.926834		46.457758		0.760439		
0.175182		-0.000000		0.000000		0.000000		0.168179		0.000000		0.038553		0.000000		0.000000		-0.000000		-0.000000		0.000000		0.000000		-0.185506		0.000000		0.247637		0.000000		-0.000000		0.000000		-114.224527		703.953673		54.250590		0.413629		1.261595		1.876685		5.408601		-33.332631		-2.568797		138.051243		915.798809		11.585571		-0.354723		1.254972		1.904007		7.015299		46.537795		0.588735		
0.177379		-0.000000		0.000000		0.000000		0.168179		0.000000		0.038553		0.000000		0.000000		-0.000000		0.000000		0.000000		0.000000		-0.185506		0.000000		0.247637		0.000000		-0.000000		0.000000		-114.899762		704.201191		52.414327		0.413641		1.261604		1.876760		5.446479		-33.380545		-2.484543		139.409678		914.810327		8.148270		-0.354711		1.254967		1.904066		7.099732		46.588641		0.414964		
0.179576		-0.000000		0.000000		0.000000		0.168179		0.000000		0.038553		0.000000		0.000000		-0.000000		0.000000		0.000000		0.000000		-0.185506		0.000000		0.247637		0.000000		-0.000000		0.000000		-115.463739		704.276688		50.453407		0.413647		1.261613		1.876836		5.480275		-33.427204		-2.394678		140.686773		913.308932		4.688678		-0.354700		1.254963		1.904125		7.179848		46.610057		0.239281		
0.181773		-0.000000		0.000000		0.000000		0.168179		0.000000		0.038553		0.000000		0.000000		-0.000000		0.000000		0.000000		0.000000		-0.185506		0.000000		0.247637		0.000000		-0.000000		0.000000		-115.904652		704.152064		48.346113		0.413650		1.261625		1.876910		5.509479		-33.471571		-2.298110		141.876826		911.292352		1.208350		-0.354687		1.254961		1.904184		7.255349		46.601988		0.061789		
0.183970		-0.000000		0.000000		0.000000		0.168179		0.000000		0.038553		0.000000		0.000000		-0.000000		0.000000		0.000000		0.000000		-0.185506		0.000000		0.247637		0.000000		-0.000000		0.000000		-116.215449		703.802223		46.076863		0.413648		1.261638		1.876985		5.533723		-33.512292		-2.193998		142.974805		908.766460		-2.293037		-0.354675		1.254960		1.904243		7.326006		46.565041		-0.117496		
0.186167		-0.000000		0.000000		0.000000		0.168179		0.000000		0.038553		0.000000		0.000000		-0.000000		0.000000		0.000000		0.000000		-0.185506		0.000000		0.247637		0.000000		-0.000000		0.000000		-116.388095		703.194892		43.625728		0.413643		1.261653		1.877057		5.552565		-33.547550		-2.081264		143.972045		905.721757		-5.817078		-0.354664		1.254961		1.904302		7.391426		46.499123		-0.298649		
0.188364		-0.000000		0.000000		0.000000		0.168179		0.000000		0.038553		0.000000		0.000000		-0.000000		0.000000		-0.000000		0.000000		-0.185506		0.000000		0.247637		0.000000		-0.000000		-0.000000		-116.421512		702.305879		40.979843		0.413636		1.261670		1.877128		5.565807		-33.575398		-1.959136		144.862402		902.165631		-9.365199		-0.354653		1.254965		1.904361		7.451372		46.405214		-0.481727		
0.190561		0.000000		0.000000		-0.000000		0.168179		0.000000		0.038553		-0.000000		-0.000000		-0.000000		0.000000		-0.000000		-0.000000		-0.185506		0.000000		0.247637		-0.000000		-0.000000		-0.000000		-116.314881		701.107135		38.124991		0.413629		1.261687		1.877195		5.573236		-33.593603		-1.826761		145.637795		898.098133		-12.939191		-0.354643		1.254969		1.904421		7.505519		46.283946		-0.666830		
0.192758		0.000000		-0.000000		-0.000000		0.168179		0.000000		0.038553		-0.000000		-0.000000		0.000000		0.000000		-0.000000		-0.000000		-0.185506		0.000000		0.247637		-0.000000		-0.000000		-0.000000		-116.068961		699.569342		35.048221		0.413621		1.261706		1.877260		5.574695		-33.599733		-1.683332		146.289643		893.519215		-16.540864		-0.354632		1.254976		1.904481		7.553521		46.135969		-0.854076		
